<mxfile host="65bd71144e">
    <diagram id="gh1iMCYW_ueQ46zEKvBv" name="Seedless Recovery Phrase Export Flow">
        <mxGraphModel dx="1819" dy="1086" grid="1" gridSize="10" guides="1" tooltips="1" connect="1" arrows="1" fold="1" page="1" pageScale="1" pageWidth="1200" pageHeight="1600" math="0" shadow="0">
            <root>
                <mxCell id="0"/>
                <mxCell id="1" parent="0"/>
                <mxCell id="entry" value="Entry Point&#xa;(Settings â†’ Recovery Phrase)" style="rounded=1;whiteSpace=wrap;html=1;fillColor=#e1d5e7;strokeColor=#9673a6;" parent="1" vertex="1">
                    <mxGeometry x="190" y="60" width="200" height="60" as="geometry"/>
                </mxCell>
                <mxCell id="loading" value="Loading&#xa;(Check existing export state)" style="rounded=0;whiteSpace=wrap;html=1;fillColor=#fff2cc;strokeColor=#d6b656;" parent="1" vertex="1">
                    <mxGeometry x="480" y="60" width="200" height="60" as="geometry"/>
                </mxCell>
                <mxCell id="stateDecision" value="Export State?" style="rhombus;whiteSpace=wrap;html=1;fillColor=#f8cecc;strokeColor=#b85450;" parent="1" vertex="1">
                    <mxGeometry x="530" y="160" width="100" height="80" as="geometry"/>
                </mxCell>
                <mxCell id="exportInfo" value="Export Info&#xa;(2-day disclaimer)" style="rounded=0;whiteSpace=wrap;html=1;fillColor=#d5e8d4;strokeColor=#82b366;" parent="1" vertex="1">
                    <mxGeometry x="100" y="260" width="150" height="60" as="geometry"/>
                </mxCell>
                <mxCell id="mfaAuth" value="MFA Authentication&#xa;(Initiating state)" style="rounded=0;whiteSpace=wrap;html=1;fillColor=#dae8fc;strokeColor=#6c8ebf;" parent="1" vertex="1">
                    <mxGeometry x="250" y="420" width="150" height="60" as="geometry"/>
                </mxCell>
                <mxCell id="waitingLounge" value="Waiting Lounge&#xa;(Progress + Time Left)" style="rounded=0;whiteSpace=wrap;html=1;fillColor=#ffe6cc;strokeColor=#d79b00;" parent="1" vertex="1">
                    <mxGeometry x="505" y="420" width="150" height="60" as="geometry"/>
                </mxCell>
                <mxCell id="readyToExport" value="Ready to Export&#xa;(48h window active)" style="rounded=0;whiteSpace=wrap;html=1;fillColor=#e1d5e7;strokeColor=#9673a6;" parent="1" vertex="1">
                    <mxGeometry x="760" y="260" width="150" height="60" as="geometry"/>
                </mxCell>
                <mxCell id="exporting" value="Exporting&#xa;(Decryption in progress)" style="rounded=0;whiteSpace=wrap;html=1;fillColor=#fff2cc;strokeColor=#d6b656;" parent="1" vertex="1">
                    <mxGeometry x="760" y="420" width="150" height="60" as="geometry"/>
                </mxCell>
                <mxCell id="exported" value="Exported&#xa;(Show mnemonic phrase)" style="rounded=0;whiteSpace=wrap;html=1;fillColor=#d5e8d4;strokeColor=#82b366;" parent="1" vertex="1">
                    <mxGeometry x="760" y="610" width="150" height="60" as="geometry"/>
                </mxCell>
                <mxCell id="cancelRequest" value="Cancel Request&#xa;Confirmation" style="rounded=0;whiteSpace=wrap;html=1;fillColor=#ffcccc;strokeColor=#ff6666;" parent="1" vertex="1">
                    <mxGeometry x="505" y="610" width="150" height="60" as="geometry"/>
                </mxCell>
                <mxCell id="cancelling" value="Cancelling&#xa;(Reset to NotInitiated)" style="rounded=0;whiteSpace=wrap;html=1;fillColor=#ffcccc;strokeColor=#ff6666;" parent="1" vertex="1">
                    <mxGeometry x="250" y="610" width="150" height="60" as="geometry"/>
                </mxCell>
                <mxCell id="errorState" value="Error State&#xa;(Various error types)" style="rounded=0;whiteSpace=wrap;html=1;fillColor=#ff9999;strokeColor=#cc0000;" parent="1" vertex="1">
                    <mxGeometry x="1010" y="420" width="150" height="60" as="geometry"/>
                </mxCell>
                <mxCell id="e1" style="edgeStyle=orthogonalEdgeStyle;html=1;" parent="1" source="entry" target="loading" edge="1">
                    <mxGeometry relative="1" as="geometry"/>
                </mxCell>
                <mxCell id="e2" style="edgeStyle=orthogonalEdgeStyle;html=1;" parent="1" source="loading" target="stateDecision" edge="1">
                    <mxGeometry relative="1" as="geometry"/>
                </mxCell>
                <mxCell id="e3" style="edgeStyle=orthogonalEdgeStyle;html=1;" parent="1" source="stateDecision" target="exportInfo" edge="1">
                    <mxGeometry relative="1" as="geometry"/>
                </mxCell>
                <mxCell id="l1" value="NotInitiated" style="edgeLabel;html=1;align=center;verticalAlign=middle;resizable=0;points=[];" parent="e3" vertex="1" connectable="0">
                    <mxGeometry x="-0.2" y="-1" relative="1" as="geometry">
                        <mxPoint as="offset"/>
                    </mxGeometry>
                </mxCell>
                <mxCell id="e4" style="edgeStyle=orthogonalEdgeStyle;html=1;" parent="1" source="stateDecision" target="waitingLounge" edge="1">
                    <mxGeometry relative="1" as="geometry"/>
                </mxCell>
                <mxCell id="l2" value="Pending/Cancelling" style="edgeLabel;html=1;align=center;verticalAlign=middle;resizable=0;points=[];" parent="e4" vertex="1" connectable="0">
                    <mxGeometry x="-0.1" y="-1" relative="1" as="geometry">
                        <mxPoint as="offset"/>
                    </mxGeometry>
                </mxCell>
                <mxCell id="e5" style="edgeStyle=orthogonalEdgeStyle;html=1;" parent="1" source="stateDecision" target="readyToExport" edge="1">
                    <mxGeometry relative="1" as="geometry"/>
                </mxCell>
                <mxCell id="l3" value="ReadyToExport" style="edgeLabel;html=1;align=center;verticalAlign=middle;resizable=0;points=[];" parent="e5" vertex="1" connectable="0">
                    <mxGeometry x="-0.2" y="-1" relative="1" as="geometry">
                        <mxPoint as="offset"/>
                    </mxGeometry>
                </mxCell>
                <mxCell id="e6" style="edgeStyle=orthogonalEdgeStyle;html=1;" parent="1" source="exportInfo" target="mfaAuth" edge="1">
                    <mxGeometry relative="1" as="geometry"/>
                </mxCell>
                <mxCell id="l4" value="Next" style="edgeLabel;html=1;align=center;verticalAlign=middle;resizable=0;points=[];" parent="e6" vertex="1" connectable="0">
                    <mxGeometry x="-0.1" y="-1" relative="1" as="geometry">
                        <mxPoint as="offset"/>
                    </mxGeometry>
                </mxCell>
                <mxCell id="e7" style="edgeStyle=orthogonalEdgeStyle;html=1;" parent="1" source="mfaAuth" target="waitingLounge" edge="1">
                    <mxGeometry relative="1" as="geometry"/>
                </mxCell>
                <mxCell id="l5" value="initExport()" style="edgeLabel;html=1;align=center;verticalAlign=middle;resizable=0;points=[];" parent="e7" vertex="1" connectable="0">
                    <mxGeometry x="-0.1" y="-1" relative="1" as="geometry">
                        <mxPoint as="offset"/>
                    </mxGeometry>
                </mxCell>
                <mxCell id="e8" style="edgeStyle=orthogonalEdgeStyle;html=1;" parent="1" source="waitingLounge" target="readyToExport" edge="1">
                    <mxGeometry relative="1" as="geometry">
                        <Array as="points">
                            <mxPoint x="690" y="450"/>
                            <mxPoint x="690" y="290"/>
                        </Array>
                    </mxGeometry>
                </mxCell>
                <mxCell id="l6" value="2 days elapsed" style="edgeLabel;html=1;align=center;verticalAlign=middle;resizable=0;points=[];" parent="e8" vertex="1" connectable="0">
                    <mxGeometry x="-0.1" y="-1" relative="1" as="geometry">
                        <mxPoint as="offset"/>
                    </mxGeometry>
                </mxCell>
                <mxCell id="e9" style="edgeStyle=orthogonalEdgeStyle;html=1;" parent="1" source="readyToExport" target="exporting" edge="1">
                    <mxGeometry relative="1" as="geometry"/>
                </mxCell>
                <mxCell id="l7" value="completeExport()" style="edgeLabel;html=1;align=center;verticalAlign=middle;resizable=0;points=[];" parent="e9" vertex="1" connectable="0">
                    <mxGeometry x="-0.1" y="-1" relative="1" as="geometry">
                        <mxPoint as="offset"/>
                    </mxGeometry>
                </mxCell>
                <mxCell id="e10" style="edgeStyle=orthogonalEdgeStyle;html=1;" parent="1" source="exporting" target="exported" edge="1">
                    <mxGeometry relative="1" as="geometry"/>
                </mxCell>
                <mxCell id="l8" value="Success" style="edgeLabel;html=1;align=center;verticalAlign=middle;resizable=0;points=[];" parent="e10" vertex="1" connectable="0">
                    <mxGeometry x="-0.1" y="-1" relative="1" as="geometry">
                        <mxPoint as="offset"/>
                    </mxGeometry>
                </mxCell>
                <mxCell id="e11" style="edgeStyle=orthogonalEdgeStyle;html=1;" parent="1" source="waitingLounge" target="cancelRequest" edge="1">
                    <mxGeometry relative="1" as="geometry"/>
                </mxCell>
                <mxCell id="l9" value="Cancel Request" style="edgeLabel;html=1;align=center;verticalAlign=middle;resizable=0;points=[];" parent="e11" vertex="1" connectable="0">
                    <mxGeometry x="-0.1" y="-1" relative="1" as="geometry">
                        <mxPoint as="offset"/>
                    </mxGeometry>
                </mxCell>
                <mxCell id="e12" style="edgeStyle=orthogonalEdgeStyle;html=1;" parent="1" source="cancelRequest" target="cancelling" edge="1">
                    <mxGeometry relative="1" as="geometry"/>
                </mxCell>
                <mxCell id="l10" value="Approve" style="edgeLabel;html=1;align=center;verticalAlign=middle;resizable=0;points=[];" parent="e12" vertex="1" connectable="0">
                    <mxGeometry x="-0.1" y="-1" relative="1" as="geometry">
                        <mxPoint as="offset"/>
                    </mxGeometry>
                </mxCell>
                <mxCell id="e13" style="edgeStyle=orthogonalEdgeStyle;html=1;" parent="1" source="cancelling" target="exportInfo" edge="1">
                    <mxGeometry relative="1" as="geometry">
                        <Array as="points">
                            <mxPoint x="175" y="650"/>
                        </Array>
                    </mxGeometry>
                </mxCell>
                <mxCell id="l11" value="Reset to NotInitiated" style="edgeLabel;html=1;align=center;verticalAlign=middle;resizable=0;points=[];" parent="e13" vertex="1" connectable="0">
                    <mxGeometry x="-0.1" y="-1" relative="1" as="geometry">
                        <mxPoint as="offset"/>
                    </mxGeometry>
                </mxCell>
                <mxCell id="e14" style="edgeStyle=orthogonalEdgeStyle;html=1;strokeColor=#ff0000;" parent="1" source="mfaAuth" target="errorState" edge="1">
                    <mxGeometry relative="1" as="geometry">
                        <Array as="points">
                            <mxPoint x="40" y="450"/>
                            <mxPoint x="40" y="30"/>
                            <mxPoint x="1110" y="30"/>
                        </Array>
                    </mxGeometry>
                </mxCell>
                <mxCell id="l12" value="Init Failed" style="edgeLabel;html=1;align=center;verticalAlign=middle;resizable=0;points=[];color=#ff0000;" parent="e14" vertex="1" connectable="0">
                    <mxGeometry x="-0.1" y="-1" relative="1" as="geometry">
                        <mxPoint as="offset"/>
                    </mxGeometry>
                </mxCell>
                <mxCell id="e15" style="edgeStyle=orthogonalEdgeStyle;html=1;strokeColor=#ff0000;" parent="1" source="exporting" target="errorState" edge="1">
                    <mxGeometry relative="1" as="geometry"/>
                </mxCell>
                <mxCell id="l13" value="Decrypt Failed" style="edgeLabel;html=1;align=center;verticalAlign=middle;resizable=0;points=[];color=#ff0000;" parent="e15" vertex="1" connectable="0">
                    <mxGeometry x="-0.1" y="-1" relative="1" as="geometry">
                        <mxPoint as="offset"/>
                    </mxGeometry>
                </mxCell>
                <mxCell id="e16" style="edgeStyle=orthogonalEdgeStyle;html=1;strokeColor=#ff0000;" parent="1" source="readyToExport" target="errorState" edge="1">
                    <mxGeometry relative="1" as="geometry">
                        <Array as="points">
                            <mxPoint x="1085" y="290"/>
                        </Array>
                    </mxGeometry>
                </mxCell>
                <mxCell id="l14" value="48h Expired" style="edgeLabel;html=1;align=center;verticalAlign=middle;resizable=0;points=[];color=#ff0000;" parent="e16" vertex="1" connectable="0">
                    <mxGeometry x="-0.1" y="-1" relative="1" as="geometry">
                        <mxPoint as="offset"/>
                    </mxGeometry>
                </mxCell>
                <mxCell id="legend" value="States:&#xa;â€¢ Loading - Check existing export&#xa;â€¢ NotInitiated - Show 2-day disclaimer&#xa;â€¢ Initiating - MFA authentication&#xa;â€¢ Pending - 2-day waiting period&#xa;â€¢ ReadyToExport - 48h window to decrypt&#xa;â€¢ Exporting - Decryption in progress&#xa;â€¢ Exported - Show mnemonic phrase&#xa;â€¢ Cancelling - Cancel request&#xa;â€¢ Error - Various error conditions" style="rounded=0;whiteSpace=wrap;html=1;align=left;fillColor=#f5f5f5;strokeColor=#666666;" parent="1" vertex="1">
                    <mxGeometry x="50" y="750" width="300" height="200" as="geometry"/>
                </mxCell>
                <mxCell id="timeInfo" value="Timing:&#xa;â€¢ 2 days (48h) waiting period in production&#xa;â€¢ 1 minute in development&#xa;â€¢ 48 hours window to complete export&#xa;â€¢ Progress updates every 2 seconds" style="rounded=0;whiteSpace=wrap;html=1;align=left;fillColor=#fff2cc;strokeColor=#d6b656;" parent="1" vertex="1">
                    <mxGeometry x="400" y="750" width="300" height="120" as="geometry"/>
                </mxCell>
            </root>
        </mxGraphModel>
    </diagram>
</mxfile>